# xmcd
#
# Track frame offsets:
#	150
#	14142
#	31029
#	43955
#	57493
#
# Disc length: 990 seconds
#
# Revision: 1
# Processed by: cddbd v1.5.2PL0 Copyright (c) Steve Scherf et al.
# Submitted via: EasyCDDAExtractor 12.1.0.1
#
DISCID=4103dc05
DTITLE=Straight Land  - Road to Vegas
DYEAR=2011
DGENRE=Metal
TTITLE0=Road to vegas
TTITLE1=Acid roomer
TTITLE2=Hungerized
TTITLE3=Hello, monster!
TTITLE4=Testosterone
EXTD=
EXTT0=
EXTT1=
EXTT2=
EXTT3=
EXTT4=
PLAYORDER=
